<svg viewBox="0 0 20 20">
    <g fill-rule="evenodd">
        <path d="M0,10 C0,4.4771525 4.47593818,0 10,0 C15.5228475,0 20,4.47593818 20,10 C20,15.5228475 15.5240618,20 10,20 C4.4771525,20 0,15.5240618 0,10 Z M2,10 C2,5.581722 5.58075055,2 10,2 C14.418278,2 18,5.58075055 18,10 C18,14.418278 14.4192495,18 10,18 C5.581722,18 2,14.4192495 2,10 Z"></path>
        <path d="M10,8.58578644 L12.8284271,5.75735931 L14.2426407,7.17157288 L11.4142136,10 L14.2426407,12.8284271 L12.8284271,14.2426407 L10,11.4142136 L7.17157288,14.2426407 L5.75735931,12.8284271 L8.58578644,10 L5.75735931,7.17157288 L7.17157288,5.75735931 L10,8.58578644 Z"></path>
    </g>
</svg>
