<svg viewBox="0 0 22 22">
    <g fill-rule="evenodd">
        <path fill="currentColor" d="M0,11 C0,4.92486775 4.923532,0 11,0 C17.0751322,0 22,4.923532 22,11 C22,17.0751322 17.076468,22 11,22 C4.92486775,22 0,17.076468 0,11 Z M1,11 C1,16.5237031 5.47667235,21 11,21 C16.5237031,21 21,16.5233276 21,11 C21,5.47629686 16.5233276,1 11,1 C5.47629686,1 1,5.47667235 1,11 Z"></path>
        <path fill="currentColor" d="M10,11.0029293 C10,10.4490268 10.4438648,10 11,10 C11.5522847,10 12,10.4378814 12,11.0029293 L12,15.9970707 C12,16.5509732 11.5561352,17 11,17 C10.4477153,17 10,16.5621186 10,15.9970707 L10,11.0029293 Z M10,7 C10,6.44771525 10.4438648,6 11,6 C11.5522847,6 12,6.44386482 12,7 C12,7.55228475 11.5561352,8 11,8 C10.4477153,8 10,7.55613518 10,7 Z"></path>
    </g>
</svg>
