<svg viewBox="0 0 20 20">
    <g fill="currentColor" fill-rule="evenodd">
        <path d="M0,10 C0,4.4771525 4.47593818,0 10,0 C15.5228475,0 20,4.47593818 20,10 C20,15.5228475 15.5240618,20 10,20 C4.4771525,20 0,15.5240618 0,10 Z M2,10 C2,14.4189625 5.58133788,18 10,18 C14.4189625,18 18,14.4186621 18,10 C18,5.58103749 14.4186621,2 10,2 C5.58103749,2 2,5.58133788 2,10 Z"></path>
        <path d="M9,6.0029293 C9,5.4490268 9.4438648,5 10,5 C10.5522847,5 11,5.4378814 11,6.0029293 L11,10.9970707 C11,11.5509732 10.5561352,12 10,12 C9.4477153,12 9,11.5621186 9,10.9970707 L9,6.0029293 Z M9,15 C9,14.4477152 9.4438648,14 10,14 C10.5522847,14 11,14.4438648 11,15 C11,15.5522848 10.5561352,16 10,16 C9.4477153,16 9,15.5561352 9,15 Z"></path>
    </g>
</svg>
